<svg width="40" height="40" viewBox="0 0 40 40" fill="none" xmlns="http://www.w3.org/2000/svg">
<g id="bubble-chart-fill">
<path id="Path 29" fill-rule="evenodd" clip-rule="evenodd" d="M33.332 12.4997C33.332 7.43634 29.2287 3.33301 24.1654 3.33301C19.102 3.33301 14.9987 7.43634 14.9987 12.4997C14.9987 17.563 19.102 21.6663 24.1654 21.6663C29.2287 21.6663 33.332 17.563 33.332 12.4997ZM9.9987 19.9997C13.682 19.9997 16.6654 22.983 16.6654 26.6663C16.6654 30.3497 13.682 33.333 9.9987 33.333C6.31537 33.333 3.33203 30.3497 3.33203 26.6663C3.33203 22.983 6.31537 19.9997 9.9987 19.9997ZM26.6654 26.6663C29.427 26.6663 31.6654 28.9047 31.6654 31.6663C31.6654 34.428 29.427 36.6663 26.6654 36.6663C23.9037 36.6663 21.6654 34.428 21.6654 31.6663C21.6654 28.9047 23.9037 26.6663 26.6654 26.6663Z" fill="#416FF4"/>
</g>
</svg>
