<svg width="40" height="40" viewBox="0 0 40 40" fill="none" xmlns="http://www.w3.org/2000/svg">
<g id="earth-fill">
<path id="Path 41" fill-rule="evenodd" clip-rule="evenodd" d="M19.9987 36.6663C10.7937 36.6663 3.33203 29.2047 3.33203 19.9997C3.33203 10.7947 10.7937 3.33301 19.9987 3.33301C29.2037 3.33301 36.6654 10.7947 36.6654 19.9997C36.6654 29.2047 29.2037 36.6663 19.9987 36.6663ZM30.5904 26.5863V26.4113C30.5904 24.8747 30.5904 24.173 29.5037 23.5513C29.1544 23.3533 28.7957 23.1726 28.4287 23.0097L28.42 23.0057C27.8132 22.7296 27.4094 22.5459 26.8654 21.7497C26.8001 21.6547 26.7356 21.5591 26.672 21.463C26.097 20.588 25.682 19.958 24.102 20.208C20.9937 20.7013 20.7637 21.248 20.627 22.1713L20.6054 22.323C20.4037 23.673 20.367 24.1263 20.9304 24.718C23.0387 26.9297 24.302 28.5247 24.6854 29.458C24.872 29.913 25.352 31.2913 25.022 32.6547C27.0451 31.8489 28.8458 30.5705 30.2737 28.9263C30.457 28.303 30.5904 27.5263 30.5904 26.5863ZM10.172 10.5813C12.6487 7.99801 16.137 6.38801 19.9987 6.38801C21.9021 6.38602 23.7845 6.78466 25.5237 7.55801C24.6004 8.17801 23.1104 9.18301 22.6237 9.84967C22.5691 9.92445 22.509 10.0739 22.4344 10.2593C22.2013 10.8384 21.8273 11.7679 21.042 11.8663C20.7761 11.9004 20.425 11.8777 20.0501 11.8534L20.0187 11.8513L20.0173 11.8513C18.9808 11.7846 17.5652 11.6936 17.112 12.9247C16.8237 13.7063 16.772 15.823 17.7054 16.923C17.8537 17.0997 17.8837 17.423 17.7804 17.7897C17.6487 18.268 17.3804 18.5597 17.297 18.6197C17.1354 18.5263 16.8137 18.1547 16.597 17.903C16.0754 17.2947 15.422 16.5363 14.5787 16.303C14.2955 16.2245 13.9868 16.1588 13.6826 16.0941C13.6574 16.0887 13.6322 16.0834 13.607 16.078C12.692 15.888 11.6554 15.668 11.4154 15.1547C11.2404 14.7797 11.2404 14.2597 11.2404 13.713C11.2404 13.018 11.2404 12.233 10.9004 11.4713C10.7237 11.0747 10.467 10.7863 10.172 10.5813Z" fill="#416FF4"/>
</g>
</svg>
