<svg width="40" height="40" viewBox="0 0 40 40" fill="none" xmlns="http://www.w3.org/2000/svg">
<g id="user-5-fill">
<path id="Path 39" fill-rule="evenodd" clip-rule="evenodd" d="M7.29275 12.6377C5.53608 18.1768 7.56914 24.2158 12.3181 27.5647H12.3164L8.84476 35.4997C8.73223 35.7576 8.75738 36.0548 8.91164 36.29C9.0659 36.5253 9.32844 36.6668 9.60976 36.6664H30.3931C30.6749 36.6671 30.9379 36.5253 31.0922 36.2896C31.2466 36.0538 31.2714 35.7561 31.1581 35.4981L27.6864 27.5647C32.4354 24.2158 34.4684 18.1768 32.7118 12.6377C30.9551 7.09854 25.8133 3.33502 20.0023 3.33502C14.1912 3.33502 9.04943 7.09854 7.29275 12.6377ZM20.0014 23.3253C16.9446 23.3253 14.2791 21.2474 13.5331 18.2831L16.7664 17.4747C17.1356 18.961 18.47 20.0044 20.0014 20.0044C21.5328 20.0044 22.8672 18.961 23.2364 17.4747L26.4698 18.2831C25.7238 21.2474 23.0582 23.3253 20.0014 23.3253Z" fill="#CB41F4"/>
</g>
</svg>
